<svg xmlns="http://www.w3.org/2000/svg" viewBox="0 0 320 320" role="img" aria-labelledby="title desc">
  <title id="title">Logo Mar Abierto</title>
  <desc id="desc">Logo con ola y sol para Mar Abierto.</desc>
  <rect width="320" height="320" rx="40" fill="#ebfbff"/>
  <circle cx="232" cy="94" r="30" fill="#ffbf3f"/>
  <path d="M64 186c24-24 48-24 72 0s48 24 72 0 48-24 72 0v22c-24-24-48-24-72 0s-48 24-72 0-48-24-72 0v-22z" fill="#00c3ff"/>
  <path d="M64 212c24-24 48-24 72 0s48 24 72 0 48-24 72 0v18H64v-18z" fill="#0a1a2f"/>
  <text x="160" y="258" text-anchor="middle" font-family="Arial, sans-serif" font-size="24" font-weight="700" fill="#0a1a2f">MAR</text>
  <text x="160" y="286" text-anchor="middle" font-family="Arial, sans-serif" font-size="16" fill="#2a768f">ABIERTO</text>
</svg>
