<svg xmlns="http://www.w3.org/2000/svg" width="256" height="32" viewBox="0 0 256 32" fill="none">
  <g transform="translate(0 0)" stroke="#7ADFFF" stroke-width="2" stroke-linecap="round" stroke-linejoin="round">
    <rect x="7" y="7" width="18" height="18" rx="5"/>
    <circle cx="16" cy="16" r="4"/>
    <circle cx="22" cy="10" r="1.5" fill="#7ADFFF" stroke="none"/>
  </g>
  <g transform="translate(32 0)" fill="#7ADFFF">
    <path d="M18.4 26v-8h3.1l.5-3.6h-3.6v-2.3c0-1 .3-1.8 1.9-1.8H22V7.1c-.3 0-1.3-.1-2.6-.1-2.6 0-4.4 1.6-4.4 4.6v2.8h-3v3.6h3V26h3.4Z"/>
  </g>
  <g transform="translate(64 0)" fill="#7ADFFF">
    <path d="M8 9.5h16c1.4 0 2.5 1.1 2.5 2.5v8c0 1.4-1.1 2.5-2.5 2.5H8c-1.4 0-2.5-1.1-2.5-2.5v-8C5.5 10.6 6.6 9.5 8 9.5Z"/>
    <path d="m14 13 6 3-6 3v-6Z" fill="#0A1A2F"/>
  </g>
  <g transform="translate(96 0)" fill="#7ADFFF">
    <path d="M8 8h4.4l3.8 5 4.2-5H24l-6 7.2 6.7 8.8h-4.4l-4.2-5.5-4.6 5.5H8l7-8.1L8 8Z"/>
  </g>
  <g transform="translate(128 0)" stroke="#7ADFFF" stroke-width="2" stroke-linecap="round" stroke-linejoin="round">
    <path d="M16 6 9 9v5c0 5 2.7 9.5 7 11 4.3-1.5 7-6 7-11V9l-7-3Z"/>
    <path d="m13.2 16 1.9 1.9 3.7-4.3"/>
  </g>
  <g transform="translate(160 0)" stroke="#7ADFFF" stroke-width="2" stroke-linecap="round" stroke-linejoin="round">
    <circle cx="16" cy="16" r="6"/>
    <path d="M16 5v4M16 23v4M5 16h4M23 16h4"/>
  </g>
  <g transform="translate(192 0)" stroke="#7ADFFF" stroke-width="2" stroke-linecap="round" stroke-linejoin="round">
    <rect x="6" y="9" width="20" height="14" rx="2"/>
    <path d="m8 11 8 6 8-6"/>
  </g>
  <g transform="translate(224 0)" stroke="#7ADFFF" stroke-width="2" stroke-linecap="round" stroke-linejoin="round">
    <path d="M16 25s7-6.1 7-11.2c0-3.3-2.7-5.8-6-5.8-2 0-3.3 1-4 2.1-.7-1.1-2-2.1-4-2.1-3.3 0-6 2.5-6 5.8C9 18.9 16 25 16 25Z"/>
  </g>
</svg>
